<svg viewBox="0 0 94 108" xmlns="http://www.w3.org/2000/svg">
	<defs>
		<style>
			:root {
				--logo-green: hsl(105, 50%, 55%);
				--logo-green_bg: hsl(105, 50%, 85%);
			}
		</style>
	</defs>
	<g transform="translate(47 54)">
		<path fill="var(--logo-green_bg)" stroke="var(--logo-green)" stroke-width="3" d="M 0 -52 L 45 -26 L 45 26 L 0 52 L -45 26 L -45 -26 Z"/>
		<path d="M-3.71875 9.66406C-3.71875 6.35677 -2.6901 3.3099 -0.632812 0.523438C0.252604 -0.674479 1.20312 -1.82031 2.21875 -2.91406C6.17708 -7.1849 8.15625 -11.8984 8.15625 -17.0547C8.15625 -21.1953 6.4375 -23.8385 3 -24.9844C1.98438 -25.3229 0.955729 -25.4922 -0.0859375 -25.4922C-2.22135 -25.4922 -4.17448 -25.0625 -5.94531 -24.2031C-7.71615 -23.3438 -8.95312 -22.0677 -9.65625 -20.375C-8.38021 -20.0104 -7.36458 -19.3073 -6.60938 -18.2656C-5.82812 -17.224 -5.4375 -15.8958 -5.4375 -14.2812C-5.4375 -12.6927 -5.94531 -11.3255 -6.96094 -10.1797C-7.95052 -9.03385 -9.44792 -8.46094 -11.4531 -8.46094C-14.2656 -8.46094 -16.2188 -9.75 -17.3125 -12.3281C-17.7292 -13.2656 -17.9375 -14.4635 -17.9375 -15.9219C-17.9375 -17.4062 -17.5729 -19.0078 -16.8438 -20.7266C-16.0885 -22.4714 -14.9167 -24.0729 -13.3281 -25.5312C-9.76042 -28.7604 -5.39844 -30.375 -0.242188 -30.375C4.91406 -30.375 9.10677 -28.9688 12.3359 -26.1562C15.5651 -23.3438 17.1797 -19.6589 17.1797 -15.1016C17.1797 -10.5443 14.5755 -5.83073 9.36719 -0.960938C6.11198 2.08594 3.92448 4.50781 2.80469 6.30469C1.6849 8.07552 1.0599 9.78125 0.929688 11.4219H-3.71875V9.66406ZM-6.92188 23.7656C-6.92188 22.099 -6.33594 20.6797 -5.16406 19.5078C-3.99219 18.3359 -2.57292 17.75 -0.90625 17.75C0.760417 17.75 2.17969 18.3359 3.35156 19.5078C4.52344 20.6797 5.10938 22.099 5.10938 23.7656C5.10938 25.4323 4.52344 26.8516 3.35156 28.0234C2.17969 29.1953 0.760417 29.7812 -0.90625 29.7812C-2.57292 29.7812 -3.99219 29.1953 -5.16406 28.0234C-6.33594 26.8516 -6.92188 25.4323 -6.92188 23.7656Z" fill="var(--logo-green)"/>
	</g>
</svg>