<svg width="32" height="32" viewBox="0 0 32 32" fill="none" xmlns="http://www.w3.org/2000/svg">
<path d="M1 15.4C1 8.61 1 5.22 3.1 3.1C5.23 1 8.62 1 15.4 1H16.6C23.39 1 26.78 1 28.9 3.1C31 5.23 31 8.62 31 15.4V16.6C31 23.39 31 26.78 28.9 28.9C26.77 31 23.38 31 16.6 31H15.4C8.61 31 5.22 31 3.1 28.9C1 26.77 1 23.38 1 16.6V15.4Z" fill="#0077FF"/>
<path d="M16.8891 23C10.0559 23 6.15984 18.1289 6 10.0104H9.43656C9.54645 15.964 12.0639 18.4828 14.0619 19.0032V10.0104H17.2887V15.1417C19.2567 14.9231 21.3347 12.5813 22.034 10H25.2507C24.9885 11.3362 24.4645 12.6017 23.7116 13.7174C22.9588 14.8331 21.9932 15.775 20.8751 16.4844C22.1228 17.1314 23.2247 18.0466 24.1081 19.1697C24.9914 20.2928 25.6363 21.5983 26 23H22.4535C21.6943 20.5332 19.7962 18.6181 17.2887 18.3579V23H16.8991H16.8891Z" fill="white"/>
</svg>
